<?xml version="1.0" encoding="UTF-8"?>
<!DOCTYPE svg PUBLIC "-//W3C//DTD SVG 1.1//EN" "http://www.w3.org/Graphics/SVG/1.1/DTD/svg11.dtd">
<svg xmlns="http://www.w3.org/2000/svg" version="1.1" width="845px" height="181px" style="shape-rendering:geometricPrecision; text-rendering:geometricPrecision; image-rendering:optimizeQuality; fill-rule:evenodd; clip-rule:evenodd" xmlns:xlink="http://www.w3.org/1999/xlink">
<g><path style="opacity:1" fill="#fdfdfe" d="M -0.5,-0.5 C 281.167,-0.5 562.833,-0.5 844.5,-0.5C 844.5,59.8333 844.5,120.167 844.5,180.5C 562.833,180.5 281.167,180.5 -0.5,180.5C -0.5,120.167 -0.5,59.8333 -0.5,-0.5 Z"/></g>
<g><path style="opacity:1" fill="#2e1b68" d="M 192.5,2.5 C 195.325,2.16161 197.492,3.16161 199,5.5C 206.667,21.5 214.333,37.5 222,53.5C 223.002,57.1631 221.668,59.4965 218,60.5C 216.739,60.2409 215.739,59.5742 215,58.5C 208.318,45.1356 201.651,31.8022 195,18.5C 179.279,72.3241 162.779,125.824 145.5,179C 143.097,179.63 141.263,178.797 140,176.5C 135.775,150.816 131.442,125.149 127,99.5C 126.333,98.1667 125.667,98.1667 125,99.5C 118.667,111.5 112.333,123.5 106,135.5C 104.087,137.187 101.92,137.687 99.5,137C 95.6343,115.948 92.1343,94.7815 89,73.5C 84.7254,82.3821 80.7254,91.3821 77,100.5C 75.4454,104.456 73.2788,107.956 70.5,111C 49.1667,111.667 27.8333,111.667 6.5,111C 3.06816,108.633 2.73483,105.966 5.5,103C 25.8333,102.667 46.1667,102.333 66.5,102C 73.5212,86.1226 80.6879,70.2892 88,54.5C 92.3372,52.4377 95.0038,53.771 96,58.5C 98.7211,78.5482 101.721,98.5482 105,118.5C 111.412,106.007 118.079,93.6738 125,81.5C 127.244,79.0062 129.577,79.0062 132,81.5C 136.868,105.708 141.202,130.042 145,154.5C 160.401,104.964 175.401,55.2975 190,5.5C 191.045,4.62656 191.878,3.62656 192.5,2.5 Z"/></g>
<g><path style="opacity:1" fill="#706298" d="M 456.5,36.5 C 466.319,35.506 476.319,35.1726 486.5,35.5C 486.5,29.1667 486.5,22.8333 486.5,16.5C 468.167,16.5 449.833,16.5 431.5,16.5C 431.5,47.8333 431.5,79.1667 431.5,110.5C 430.502,79.0044 430.168,47.3377 430.5,15.5C 449.5,15.5 468.5,15.5 487.5,15.5C 487.5,22.5 487.5,29.5 487.5,36.5C 477.167,36.5 466.833,36.5 456.5,36.5 Z"/></g>
<g><path style="opacity:1" fill="#2b1866" d="M 524.5,15.5 C 536.167,15.5 547.833,15.5 559.5,15.5C 569.502,47.1728 579.502,78.8395 589.5,110.5C 580.167,110.5 570.833,110.5 561.5,110.5C 560.872,104.49 559.539,98.6565 557.5,93C 547.151,92.1677 536.817,92.3344 526.5,93.5C 524.382,98.9734 523.048,104.64 522.5,110.5C 512.828,110.666 503.161,110.5 493.5,110C 504.066,78.5653 514.4,47.0653 524.5,15.5 Z"/></g>
<g><path style="opacity:1" fill="#63548e" d="M 742.5,16.5 C 718.833,16.5 695.167,16.5 671.5,16.5C 671.5,23.1667 671.5,29.8333 671.5,36.5C 670.509,29.6866 670.175,22.6866 670.5,15.5C 694.672,15.1691 718.672,15.5024 742.5,16.5 Z"/></g>
<g><path style="opacity:1" fill="#291665" d="M 329.5,16.5 C 337.833,16.5 346.167,16.5 354.5,16.5C 354.172,28.0123 354.505,39.3456 355.5,50.5C 365.319,51.494 375.319,51.8274 385.5,51.5C 385.5,39.8333 385.5,28.1667 385.5,16.5C 393.833,16.5 402.167,16.5 410.5,16.5C 410.5,47.8333 410.5,79.1667 410.5,110.5C 402.167,110.5 393.833,110.5 385.5,110.5C 385.5,97.5 385.5,84.5 385.5,71.5C 375.167,71.5 364.833,71.5 354.5,71.5C 354.5,84.5 354.5,97.5 354.5,110.5C 346.167,110.5 337.833,110.5 329.5,110.5C 329.5,79.1667 329.5,47.8333 329.5,16.5 Z"/></g>
<g><path style="opacity:1" fill="#675891" d="M 329.5,16.5 C 337.984,15.507 346.651,15.1736 355.5,15.5C 355.5,27.1667 355.5,38.8333 355.5,50.5C 354.505,39.3456 354.172,28.0123 354.5,16.5C 346.167,16.5 337.833,16.5 329.5,16.5 Z"/></g>
<g><path style="opacity:1" fill="#291665" d="M 456.5,36.5 C 456.5,41.5 456.5,46.5 456.5,51.5C 465.833,51.5 475.167,51.5 484.5,51.5C 484.5,58.1667 484.5,64.8333 484.5,71.5C 475.167,71.5 465.833,71.5 456.5,71.5C 456.5,77.5 456.5,83.5 456.5,89.5C 466.319,90.494 476.319,90.8274 486.5,90.5C 486.5,97.1667 486.5,103.833 486.5,110.5C 468.167,110.5 449.833,110.5 431.5,110.5C 431.5,79.1667 431.5,47.8333 431.5,16.5C 449.833,16.5 468.167,16.5 486.5,16.5C 486.5,22.8333 486.5,29.1667 486.5,35.5C 476.319,35.1726 466.319,35.506 456.5,36.5 Z"/></g>
<g><path style="opacity:1" fill="#291665" d="M 625.5,89.5 C 637.322,90.4951 649.322,90.8284 661.5,90.5C 661.5,97.1667 661.5,103.833 661.5,110.5C 641.167,110.5 620.833,110.5 600.5,110.5C 600.5,78.8333 600.5,47.1667 600.5,15.5C 608.833,15.5 617.167,15.5 625.5,15.5C 625.5,40.1667 625.5,64.8333 625.5,89.5 Z"/></g>
<g><path style="opacity:1" fill="#291665" d="M 742.5,16.5 C 742.5,23.1667 742.5,29.8333 742.5,36.5C 734.833,36.5 727.167,36.5 719.5,36.5C 719.5,61.1667 719.5,85.8333 719.5,110.5C 711.167,110.5 702.833,110.5 694.5,110.5C 694.5,85.8333 694.5,61.1667 694.5,36.5C 686.833,36.5 679.167,36.5 671.5,36.5C 671.5,29.8333 671.5,23.1667 671.5,16.5C 695.167,16.5 718.833,16.5 742.5,16.5 Z"/></g>
<g><path style="opacity:1" fill="#8a7faa" d="M 781.5,16.5 C 773.167,16.5 764.833,16.5 756.5,16.5C 756.5,47.8333 756.5,79.1667 756.5,110.5C 755.502,79.0044 755.168,47.3377 755.5,15.5C 764.349,15.1736 773.016,15.507 781.5,16.5 Z"/></g>
<g><path style="opacity:1" fill="#291665" d="M 781.5,16.5 C 781.5,27.8333 781.5,39.1667 781.5,50.5C 791.5,50.5 801.5,50.5 811.5,50.5C 811.5,39.1667 811.5,27.8333 811.5,16.5C 819.833,16.5 828.167,16.5 836.5,16.5C 836.5,47.8333 836.5,79.1667 836.5,110.5C 828.167,110.5 819.833,110.5 811.5,110.5C 811.5,97.8333 811.5,85.1667 811.5,72.5C 801.681,71.506 791.681,71.1726 781.5,71.5C 781.5,84.5 781.5,97.5 781.5,110.5C 773.167,110.5 764.833,110.5 756.5,110.5C 756.5,79.1667 756.5,47.8333 756.5,16.5C 764.833,16.5 773.167,16.5 781.5,16.5 Z"/></g>
<g><path style="opacity:1" fill="#6a5c93" d="M 811.5,16.5 C 819.984,15.507 828.651,15.1736 837.5,15.5C 837.832,47.3377 837.498,79.0044 836.5,110.5C 836.5,79.1667 836.5,47.8333 836.5,16.5C 828.167,16.5 819.833,16.5 811.5,16.5 Z"/></g>
<g><path style="opacity:1" fill="#f6f6f9" d="M 551.5,70.5 C 545.167,71.8333 538.833,71.8333 532.5,70.5C 535.508,57.4691 538.674,44.4691 542,31.5C 545.108,44.5472 548.275,57.5472 551.5,70.5 Z"/></g>
<g><path style="opacity:1" fill="#7a6d9e" d="M 410.5,16.5 C 402.167,16.5 393.833,16.5 385.5,16.5C 385.5,28.1667 385.5,39.8333 385.5,51.5C 375.319,51.8274 365.319,51.494 355.5,50.5C 365.167,50.5 374.833,50.5 384.5,50.5C 384.5,38.8333 384.5,27.1667 384.5,15.5C 393.349,15.1736 402.016,15.507 410.5,16.5 Z"/></g>
<g><path style="opacity:1" fill="#5f508b" d="M 532.5,70.5 C 538.833,71.8333 545.167,71.8333 551.5,70.5C 552.043,70.56 552.376,70.8933 552.5,71.5C 545.5,72.8333 538.5,72.8333 531.5,71.5C 531.624,70.8933 531.957,70.56 532.5,70.5 Z"/></g>
<g><path style="opacity:1" fill="#8d82ad" d="M 385.5,110.5 C 384.505,98.011 384.171,85.3443 384.5,72.5C 374.833,72.5 365.167,72.5 355.5,72.5C 355.829,85.3443 355.495,98.011 354.5,110.5C 354.5,97.5 354.5,84.5 354.5,71.5C 364.833,71.5 375.167,71.5 385.5,71.5C 385.5,84.5 385.5,97.5 385.5,110.5 Z"/></g>
<g><path style="opacity:1" fill="#c5c0d5" d="M 811.5,72.5 C 801.833,72.5 792.167,72.5 782.5,72.5C 782.829,85.3443 782.495,98.011 781.5,110.5C 781.5,97.5 781.5,84.5 781.5,71.5C 791.681,71.1726 801.681,71.506 811.5,72.5 Z"/></g>
<g><path style="opacity:1" fill="#2a1766" d="M 204.5,77.5 C 208.605,77.2338 212.605,77.7338 216.5,79C 219.312,80.9773 221.978,83.144 224.5,85.5C 228.03,82.8045 231.696,80.3045 235.5,78C 245.864,76.3623 252.697,80.529 256,90.5C 257.162,96.5566 256.162,102.223 253,107.5C 243.653,117.014 234.153,126.348 224.5,135.5C 214.847,126.348 205.347,117.014 196,107.5C 189.629,94.7902 192.462,84.7902 204.5,77.5 Z"/></g>
<g><path style="opacity:1" fill="#4f4080" d="M 456.5,89.5 C 466.833,89.5 477.167,89.5 487.5,89.5C 487.825,96.6866 487.491,103.687 486.5,110.5C 486.5,103.833 486.5,97.1667 486.5,90.5C 476.319,90.8274 466.319,90.494 456.5,89.5 Z"/></g>
<g><path style="opacity:1" fill="#695b93" d="M 625.5,89.5 C 637.833,89.5 650.167,89.5 662.5,89.5C 662.825,96.6866 662.491,103.687 661.5,110.5C 661.5,103.833 661.5,97.1667 661.5,90.5C 649.322,90.8284 637.322,90.4951 625.5,89.5 Z"/></g>
<g><path style="opacity:1" fill="#2d1a67" d="M 525.5,113.5 C 533.023,112.927 540.356,113.76 547.5,116C 547.957,116.414 548.291,116.914 548.5,117.5C 547.199,120.427 546.199,123.427 545.5,126.5C 527.742,120.634 520.575,126.967 524,145.5C 525.653,150.659 529.153,153.326 534.5,153.5C 538.329,153.113 541.996,152.113 545.5,150.5C 546.833,154.167 546.833,157.833 545.5,161.5C 519.521,168.566 507.687,158.566 510,131.5C 512.535,123.138 517.702,117.138 525.5,113.5 Z"/></g>
<g><path style="opacity:1" fill="#2d1a67" d="M 681.5,113.5 C 689.206,112.665 696.539,113.831 703.5,117C 702.167,120 700.833,123 699.5,126C 694.325,124.653 688.991,124.32 683.5,125C 676.505,132.786 675.671,141.286 681,150.5C 683.483,152.491 686.316,153.491 689.5,153.5C 693.493,152.505 697.493,151.505 701.5,150.5C 701.823,154.226 701.489,157.893 700.5,161.5C 673.23,168.408 661.397,157.741 665,129.5C 667.812,121.185 673.312,115.851 681.5,113.5 Z"/></g>
<g><path style="opacity:1" fill="#72679a" d="M 808.5,114.5 C 818.319,113.506 828.319,113.173 838.5,113.5C 838.815,117.371 838.482,121.038 837.5,124.5C 837.5,121.167 837.5,117.833 837.5,114.5C 827.833,114.5 818.167,114.5 808.5,114.5 Z"/></g>
<g><path style="opacity:1" fill="#504181" d="M 348.5,114.5 C 342.833,114.5 337.167,114.5 331.5,114.5C 331.5,130.833 331.5,147.167 331.5,163.5C 330.503,147.008 330.17,130.342 330.5,113.5C 336.69,113.177 342.69,113.51 348.5,114.5 Z"/></g>
<g><path style="opacity:1" fill="#2b1866" d="M 348.5,114.5 C 351.81,125.87 355.31,137.203 359,148.5C 362.226,136.994 365.726,125.661 369.5,114.5C 375.167,114.5 380.833,114.5 386.5,114.5C 386.5,130.833 386.5,147.167 386.5,163.5C 382.833,163.5 379.167,163.5 375.5,163.5C 375.667,151.495 375.5,139.495 375,127.5C 374.392,129.154 373.892,130.821 373.5,132.5C 370.532,142.765 367.866,153.098 365.5,163.5C 361.116,163.826 356.783,163.492 352.5,162.5C 349.287,152.198 346.287,141.864 343.5,131.5C 343.291,130.078 342.791,128.745 342,127.5C 341.211,129.712 341.378,131.712 342.5,133.5C 342.5,143.5 342.5,153.5 342.5,163.5C 338.833,163.5 335.167,163.5 331.5,163.5C 331.5,147.167 331.5,130.833 331.5,114.5C 337.167,114.5 342.833,114.5 348.5,114.5 Z"/></g>
<g><path style="opacity:1" fill="#6a5d94" d="M 369.5,114.5 C 375.31,113.51 381.31,113.177 387.5,113.5C 387.83,130.342 387.497,147.008 386.5,163.5C 386.5,147.167 386.5,130.833 386.5,114.5C 380.833,114.5 375.167,114.5 369.5,114.5 Z"/></g>
<g><path style="opacity:1" fill="#796d9f" d="M 427.5,114.5 C 417.833,114.5 408.167,114.5 398.5,114.5C 398.5,130.833 398.5,147.167 398.5,163.5C 397.503,147.008 397.17,130.342 397.5,113.5C 407.681,113.173 417.681,113.506 427.5,114.5 Z"/></g>
<g><path style="opacity:1" fill="#2a1766" d="M 427.5,114.5 C 427.5,117.833 427.5,121.167 427.5,124.5C 422.167,124.5 416.833,124.5 411.5,124.5C 411.5,127.167 411.5,129.833 411.5,132.5C 416.167,132.5 420.833,132.5 425.5,132.5C 425.5,135.833 425.5,139.167 425.5,142.5C 420.637,142.181 415.97,142.514 411.5,143.5C 411.5,146.5 411.5,149.5 411.5,152.5C 416.833,152.5 422.167,152.5 427.5,152.5C 427.5,156.167 427.5,159.833 427.5,163.5C 417.833,163.5 408.167,163.5 398.5,163.5C 398.5,147.167 398.5,130.833 398.5,114.5C 408.167,114.5 417.833,114.5 427.5,114.5 Z"/></g>
<g><path style="opacity:1" fill="#a199bc" d="M 457.5,114.5 C 450.5,114.5 443.5,114.5 436.5,114.5C 436.5,130.833 436.5,147.167 436.5,163.5C 435.503,147.008 435.17,130.342 435.5,113.5C 443.019,113.175 450.352,113.508 457.5,114.5 Z"/></g>
<g><path style="opacity:1" fill="#2a1766" d="M 457.5,114.5 C 470.865,116.033 477.865,123.533 478.5,137C 478.381,151.962 471.048,160.629 456.5,163C 449.842,163.5 443.175,163.666 436.5,163.5C 436.5,147.167 436.5,130.833 436.5,114.5C 443.5,114.5 450.5,114.5 457.5,114.5 Z"/></g>
<g><path style="opacity:1" fill="#a49cbe" d="M 500.5,114.5 C 496.167,114.5 491.833,114.5 487.5,114.5C 487.5,130.833 487.5,147.167 487.5,163.5C 486.503,147.008 486.17,130.342 486.5,113.5C 491.363,113.181 496.03,113.514 500.5,114.5 Z"/></g>
<g><path style="opacity:1" fill="#291665" d="M 500.5,114.5 C 500.5,130.833 500.5,147.167 500.5,163.5C 496.167,163.5 491.833,163.5 487.5,163.5C 487.5,147.167 487.5,130.833 487.5,114.5C 491.833,114.5 496.167,114.5 500.5,114.5 Z"/></g>
<g><path style="opacity:1" fill="#2d1a68" d="M 567.5,113.5 C 573.537,113.171 579.537,113.504 585.5,114.5C 591.241,130.722 596.574,147.055 601.5,163.5C 596.5,163.5 591.5,163.5 586.5,163.5C 586.296,160.482 585.963,157.482 585.5,154.5C 579.824,154.334 574.157,154.501 568.5,155C 567.009,157.621 566.342,160.455 566.5,163.5C 561.5,163.5 556.5,163.5 551.5,163.5C 556.637,146.757 561.97,130.09 567.5,113.5 Z"/></g>
<g><path style="opacity:1" fill="#a49cbe" d="M 620.5,114.5 C 616.167,114.5 611.833,114.5 607.5,114.5C 607.5,130.833 607.5,147.167 607.5,163.5C 606.503,147.008 606.17,130.342 606.5,113.5C 611.363,113.181 616.03,113.514 620.5,114.5 Z"/></g>
<g><path style="opacity:1" fill="#291665" d="M 620.5,114.5 C 620.5,127.167 620.5,139.833 620.5,152.5C 626.833,152.5 633.167,152.5 639.5,152.5C 639.5,156.167 639.5,159.833 639.5,163.5C 628.833,163.5 618.167,163.5 607.5,163.5C 607.5,147.167 607.5,130.833 607.5,114.5C 611.833,114.5 616.167,114.5 620.5,114.5 Z"/></g>
<g><path style="opacity:1" fill="#2e1a68" d="M 721.5,113.5 C 727.758,113.19 733.924,113.524 740,114.5C 745.68,130.705 750.847,147.038 755.5,163.5C 750.786,163.827 746.12,163.493 741.5,162.5C 740.518,159.904 739.851,157.238 739.5,154.5C 733.833,154.5 728.167,154.5 722.5,154.5C 721.539,157.426 720.873,160.426 720.5,163.5C 715.456,163.827 710.456,163.494 705.5,162.5C 710.838,146.154 716.171,129.821 721.5,113.5 Z"/></g>
<g><path style="opacity:1" fill="#2b1866" d="M 761.5,113.5 C 769.174,113.334 776.841,113.5 784.5,114C 797.621,117.471 801.121,125.305 795,137.5C 793.442,139.359 791.609,140.859 789.5,142C 794.167,149 798.833,156 803.5,163C 798.5,163.667 793.5,163.667 788.5,163C 785.207,157.582 782.04,152.082 779,146.5C 777.644,145.62 776.144,145.286 774.5,145.5C 774.5,151.5 774.5,157.5 774.5,163.5C 770.167,163.5 765.833,163.5 761.5,163.5C 761.5,146.833 761.5,130.167 761.5,113.5 Z"/></g>
<g><path style="opacity:1" fill="#2c1967" d="M 808.5,114.5 C 818.167,114.5 827.833,114.5 837.5,114.5C 837.5,117.833 837.5,121.167 837.5,124.5C 832.5,124.5 827.5,124.5 822.5,124.5C 822.5,127.167 822.5,129.833 822.5,132.5C 827.167,132.5 831.833,132.5 836.5,132.5C 836.5,135.833 836.5,139.167 836.5,142.5C 831.5,142.5 826.5,142.5 821.5,142.5C 821.187,146.042 821.521,149.375 822.5,152.5C 827.833,152.5 833.167,152.5 838.5,152.5C 838.5,156.167 838.5,159.833 838.5,163.5C 828.5,163.5 818.5,163.5 808.5,163.5C 808.5,147.167 808.5,130.833 808.5,114.5 Z"/></g>
<g><path style="opacity:1" fill="#b5aeca" d="M 780.5,124.5 C 778.833,124.5 777.167,124.5 775.5,124.5C 775.5,127.833 775.5,131.167 775.5,134.5C 777.167,134.5 778.833,134.5 780.5,134.5C 778.735,135.461 776.735,135.795 774.5,135.5C 774.5,131.5 774.5,127.5 774.5,123.5C 776.735,123.205 778.735,123.539 780.5,124.5 Z"/></g>
<g><path style="opacity:1" fill="#f8f7fa" d="M 780.5,124.5 C 784.775,126.316 785.608,129.316 783,133.5C 782.329,134.252 781.496,134.586 780.5,134.5C 778.833,134.5 777.167,134.5 775.5,134.5C 775.5,131.167 775.5,127.833 775.5,124.5C 777.167,124.5 778.833,124.5 780.5,124.5 Z"/></g>
<g><path style="opacity:1" fill="#f9f9fb" d="M 449.5,124.5 C 459.187,123.525 464.187,127.858 464.5,137.5C 465.13,148.203 460.13,153.203 449.5,152.5C 449.5,143.167 449.5,133.833 449.5,124.5 Z"/></g>
<g><path style="opacity:1" fill="#e5e2ec" d="M 730.5,122.5 C 732.363,129.101 734.363,135.768 736.5,142.5C 732.893,143.489 729.226,143.823 725.5,143.5C 727.016,136.438 728.682,129.438 730.5,122.5 Z"/></g>
<g><path style="opacity:1" fill="#e7e4ee" d="M 575.5,122.5 C 576.649,122.791 577.316,123.624 577.5,125C 578.905,131.194 580.238,137.36 581.5,143.5C 578.167,143.5 574.833,143.5 571.5,143.5C 572.993,136.529 574.326,129.529 575.5,122.5 Z"/></g>
<g><path style="opacity:1" fill="#877ca8" d="M 343.5,131.5 C 342.662,131.842 342.328,132.508 342.5,133.5C 341.378,131.712 341.211,129.712 342,127.5C 342.791,128.745 343.291,130.078 343.5,131.5 Z"/></g>
<g><path style="opacity:1" fill="#867aa8" d="M 375.5,163.5 C 374.833,153.167 374.167,142.833 373.5,132.5C 373.892,130.821 374.392,129.154 375,127.5C 375.5,139.495 375.667,151.495 375.5,163.5 Z"/></g>
<g><path style="opacity:1" fill="#73679a" d="M 425.5,132.5 C 426.482,135.962 426.815,139.629 426.5,143.5C 421.5,143.5 416.5,143.5 411.5,143.5C 415.97,142.514 420.637,142.181 425.5,142.5C 425.5,139.167 425.5,135.833 425.5,132.5 Z"/></g>
<g><path style="opacity:1" fill="#8276a5" d="M 836.5,132.5 C 837.482,135.962 837.815,139.629 837.5,143.5C 832.5,143.5 827.5,143.5 822.5,143.5C 822.5,146.5 822.5,149.5 822.5,152.5C 822.5,149.5 822.5,146.5 822.5,143.5C 827.5,143.5 832.5,143.5 837.5,143.5C 837.815,139.629 837.482,135.962 836.5,132.5 Z"/></g>
</svg>
